<mxfile host="app.diagrams.net" modified="2021-07-12T20:38:20.607Z" agent="5.0 (Windows NT 10.0; Win64; x64) AppleWebKit/537.36 (KHTML, like Gecko) Chrome/91.0.4472.124 Safari/537.36" etag="otDuCG54tyZrLSoSc3L0" version="14.8.0" type="github">
  <diagram id="_THIt55gbfhRvhKFCHsm" name="Page-1">
    <mxGraphModel dx="731" dy="402" grid="1" gridSize="10" guides="1" tooltips="1" connect="1" arrows="1" fold="1" page="1" pageScale="1" pageWidth="1169" pageHeight="827" math="0" shadow="0">
      <root>
        <mxCell id="0" />
        <mxCell id="1" parent="0" />
        <mxCell id="g2rayN-1IjMOLiug4mqU-1" value="" style="endArrow=classic;html=1;" edge="1" parent="1">
          <mxGeometry width="50" height="50" relative="1" as="geometry">
            <mxPoint x="240" y="280" as="sourcePoint" />
            <mxPoint x="240" y="200" as="targetPoint" />
          </mxGeometry>
        </mxCell>
        <mxCell id="g2rayN-1IjMOLiug4mqU-2" value="" style="endArrow=classic;html=1;" edge="1" parent="1">
          <mxGeometry width="50" height="50" relative="1" as="geometry">
            <mxPoint x="240" y="280" as="sourcePoint" />
            <mxPoint x="320" y="280" as="targetPoint" />
          </mxGeometry>
        </mxCell>
        <mxCell id="g2rayN-1IjMOLiug4mqU-3" value="" style="ellipse;fillColor=#ffffff;strokeColor=#000000;" vertex="1" parent="1">
          <mxGeometry x="235" y="275" width="10" height="10" as="geometry" />
        </mxCell>
        <mxCell id="g2rayN-1IjMOLiug4mqU-4" value="x&lt;sub&gt;e&lt;/sub&gt;" style="text;html=1;strokeColor=none;fillColor=none;align=center;verticalAlign=middle;whiteSpace=wrap;rounded=0;" vertex="1" parent="1">
          <mxGeometry x="310" y="275" width="40" height="20" as="geometry" />
        </mxCell>
        <mxCell id="g2rayN-1IjMOLiug4mqU-5" value="&lt;span style=&quot;font-size: 10px&quot;&gt;y&lt;sub&gt;e&lt;/sub&gt;&lt;/span&gt;" style="text;html=1;strokeColor=none;fillColor=none;align=center;verticalAlign=middle;whiteSpace=wrap;rounded=0;" vertex="1" parent="1">
          <mxGeometry x="205" y="190" width="40" height="20" as="geometry" />
        </mxCell>
        <mxCell id="g2rayN-1IjMOLiug4mqU-6" value="&lt;span style=&quot;font-size: 10px&quot;&gt;z&lt;sub&gt;e&lt;/sub&gt;&lt;/span&gt;" style="text;html=1;strokeColor=none;fillColor=none;align=center;verticalAlign=middle;whiteSpace=wrap;rounded=0;" vertex="1" parent="1">
          <mxGeometry x="205" y="275" width="40" height="20" as="geometry" />
        </mxCell>
        <mxCell id="g2rayN-1IjMOLiug4mqU-7" value="" style="endArrow=classic;html=1;fillColor=#fa6800;strokeColor=#C73500;" edge="1" parent="1">
          <mxGeometry width="50" height="50" relative="1" as="geometry">
            <mxPoint x="435" y="280" as="sourcePoint" />
            <mxPoint x="435" y="200" as="targetPoint" />
          </mxGeometry>
        </mxCell>
        <mxCell id="g2rayN-1IjMOLiug4mqU-8" value="" style="endArrow=classic;html=1;fillColor=#fa6800;strokeColor=#C73500;" edge="1" parent="1">
          <mxGeometry width="50" height="50" relative="1" as="geometry">
            <mxPoint x="435" y="280" as="sourcePoint" />
            <mxPoint x="515" y="280" as="targetPoint" />
          </mxGeometry>
        </mxCell>
        <mxCell id="g2rayN-1IjMOLiug4mqU-9" value="" style="ellipse;fillColor=#fa6800;strokeColor=#C73500;fontColor=#000000;" vertex="1" parent="1">
          <mxGeometry x="430" y="275" width="10" height="10" as="geometry" />
        </mxCell>
        <mxCell id="g2rayN-1IjMOLiug4mqU-10" value="x&lt;sub&gt;b&lt;/sub&gt;" style="text;html=1;align=center;verticalAlign=middle;whiteSpace=wrap;rounded=0;fontColor=#000000;" vertex="1" parent="1">
          <mxGeometry x="505" y="275" width="40" height="20" as="geometry" />
        </mxCell>
        <mxCell id="g2rayN-1IjMOLiug4mqU-11" value="&lt;span style=&quot;font-size: 10px&quot;&gt;y&lt;/span&gt;&lt;span style=&quot;font-size: 8.33333px&quot;&gt;&lt;sub&gt;b&lt;/sub&gt;&lt;/span&gt;" style="text;html=1;align=center;verticalAlign=middle;whiteSpace=wrap;rounded=0;fontColor=#000000;" vertex="1" parent="1">
          <mxGeometry x="400" y="190" width="40" height="20" as="geometry" />
        </mxCell>
        <mxCell id="g2rayN-1IjMOLiug4mqU-12" value="&lt;span style=&quot;font-size: 10px&quot;&gt;z&lt;sub&gt;b&lt;/sub&gt;&lt;/span&gt;" style="text;html=1;align=center;verticalAlign=middle;whiteSpace=wrap;rounded=0;fontColor=#000000;" vertex="1" parent="1">
          <mxGeometry x="400" y="275" width="40" height="20" as="geometry" />
        </mxCell>
      </root>
    </mxGraphModel>
  </diagram>
</mxfile>
